# xmcd
#
# Track frame offsets:
#	150
#	14640
#	28473
#	41991
#	56169
#	69616
#	82466
#	95220
#	118205
#	131112
#	145067
#	157278
#	170478
#	184000
#	197567
#	210045
#	224317
#	237224
#	248961
#	262312
#	275851
#	290877
#	304542
#	317568
#	331074
#	344549
#
# Disc length: 4765 seconds
#
# Revision: 2
# Processed by: cddbd v1.5.2PL0 Copyright (c) Steve Scherf et al.
# Submitted via: EasyCDDAExtractor 6.5.0.1
#
DISCID=b4129b1a
DTITLE=Wilf Carter - (Montana Slim) - Cowboy Songs - CD5
DYEAR=1997
DGENRE=Country
TTITLE0=Pete Knight's Last Ride
TTITLE1=I Wish Had Niver Seen Sunshine
TTITLE2=Everybody's Been Some Mother's Darling
TTITLE3=You'll Always Be Mine In My Dreams
TTITLE4=Dusty Trails
TTITLE5=By The Grave Of Nobody's Darling
TTITLE6=What A Friend Be Have In Mother
TTITLE7=Martins And McCoys - Nobody's Darling But Mine - Yodelling Hillbilly
TTITLE8=The Little Red Patch On The Seat Of My Trousers
TTITLE9=Golden Memories Of Mother And Dad
TTITLE10=My Honeymoon Bridge Broke Down
TTITLE11=Down The Yodelling Trail At Twilight
TTITLE12=I'm Only A Dude In Cowboy Clothes
TTITLE13=Wilf Carter - (Montana Slim)
TTITLE14=Rootin' Tootin' Cowboy
TTITLE15=I'm Hitti' The Trail
TTITLE16=The Little Red Patch On The Seat Of My Trousers
TTITLE17=We'll Meet Again In Peaceful Valley
TTITLE18=My Brown Eyed Prairie Rose
TTITLE19=I'll Meet You At The Roundup In The Spring
TTITLE20=Dawn On The Prairie
TTITLE21=My Yodelling Sweetheart
TTITLE22=Yodelling Menories
TTITLE23=Cowboy'ss Airplane Ride
TTITLE24=Meories Of My Little Old Log Shack
TTITLE25=My Last Old Yodel Song
EXTD=
EXTT0=
EXTT1=
EXTT2=
EXTT3=
EXTT4=
EXTT5=
EXTT6=
EXTT7=
EXTT8=
EXTT9=
EXTT10=
EXTT11=
EXTT12=
EXTT13=
EXTT14=
EXTT15=
EXTT16=
EXTT17=
EXTT18=
EXTT19=
EXTT20=
EXTT21=
EXTT22=
EXTT23=
EXTT24=
EXTT25=
PLAYORDER=
